<svg width="30" height="31" viewBox="0 0 30 31" fill="none" xmlns="http://www.w3.org/2000/svg">
<mask id="mask0_5034_2180" style="mask-type:alpha" maskUnits="userSpaceOnUse" x="1" y="3" width="28" height="24">
<path fill-rule="evenodd" clip-rule="evenodd" d="M3.75 3.95703H26.25C27.625 3.95703 28.75 5.08203 28.75 6.45703V23.957C28.75 25.332 27.625 26.457 26.25 26.457H18.75C18.0625 26.457 17.5 25.8945 17.5 25.207C17.5 24.5195 18.0625 23.957 18.75 23.957H25C25.6875 23.957 26.25 23.3945 26.25 22.707V7.70703C26.25 7.01953 25.6875 6.45703 25 6.45703H5C4.3125 6.45703 3.75 7.01953 3.75 7.70703V8.95703C3.75 9.64453 3.1875 10.207 2.5 10.207C1.8125 10.207 1.25 9.64453 1.25 8.95703V6.45703C1.25 5.08203 2.375 3.95703 3.75 3.95703ZM1.25 19.0695C1.25 18.307 1.925 17.6945 2.675 17.8195C6.3625 18.4195 9.2875 21.332 9.8875 25.032C10 25.782 9.4 26.457 8.6375 26.457C8.025 26.457 7.5125 26.007 7.4125 25.3945C6.9625 22.7945 4.9125 20.7445 2.3125 20.2945C1.7 20.1945 1.25 19.682 1.25 19.0695ZM1.25 22.707V26.457H5C5 24.382 3.325 22.707 1.25 22.707ZM1.25 14.0195C1.25 13.282 1.8875 12.707 2.625 12.7695C9.1125 13.4195 14.275 18.5695 14.9375 25.057C15.0125 25.7945 14.4375 26.4445 13.6875 26.4445C13.05 26.4445 12.5125 25.982 12.45 25.357C11.9375 20.0195 7.6875 15.7695 2.35 15.257C1.725 15.1945 1.25 14.657 1.25 14.0195Z" fill="black"/>
</mask>
<g mask="url(#mask0_5034_2180)">
<rect y="0.207031" width="30" height="30" fill="white"/>
</g>
</svg>
