<svg width="39" height="39" viewBox="0 0 39 39" fill="none" xmlns="http://www.w3.org/2000/svg">
<g filter="url(#filter0_d_5034_2188)">
<rect x="4.41406" y="0.207031" width="30" height="30" rx="15" fill="white" shape-rendering="crispEdges"/>
<mask id="mask0_5034_2188" style="mask-type:alpha" maskUnits="userSpaceOnUse" x="12" y="6" width="15" height="18">
<path fill-rule="evenodd" clip-rule="evenodd" d="M22.4141 12.707L24.0041 12.707C24.8941 12.707 25.3341 13.787 24.7041 14.417L20.1141 19.007C19.7241 19.397 19.0941 19.397 18.7041 19.007L14.1141 14.417C13.4841 13.787 13.9341 12.707 14.8241 12.707H16.4141V7.70703C16.4141 7.15703 16.8641 6.70703 17.4141 6.70703L21.4141 6.70703C21.9641 6.70703 22.4141 7.15703 22.4141 7.70703V12.707ZM13.4141 23.707C12.8641 23.707 12.4141 23.257 12.4141 22.707C12.4141 22.157 12.8641 21.707 13.4141 21.707H25.4141C25.9641 21.707 26.4141 22.157 26.4141 22.707C26.4141 23.257 25.9641 23.707 25.4141 23.707L13.4141 23.707Z" fill="black"/>
</mask>
<g mask="url(#mask0_5034_2188)">
<rect x="7.41406" y="3.20703" width="24" height="24" fill="#09101D"/>
</g>
</g>
<defs>
<filter id="filter0_d_5034_2188" x="0.414062" y="0.207031" width="38" height="38" filterUnits="userSpaceOnUse" color-interpolation-filters="sRGB">
<feFlood flood-opacity="0" result="BackgroundImageFix"/>
<feColorMatrix in="SourceAlpha" type="matrix" values="0 0 0 0 0 0 0 0 0 0 0 0 0 0 0 0 0 0 127 0" result="hardAlpha"/>
<feOffset dy="4"/>
<feGaussianBlur stdDeviation="2"/>
<feComposite in2="hardAlpha" operator="out"/>
<feColorMatrix type="matrix" values="0 0 0 0 0 0 0 0 0 0 0 0 0 0 0 0 0 0 0.25 0"/>
<feBlend mode="normal" in2="BackgroundImageFix" result="effect1_dropShadow_5034_2188"/>
<feBlend mode="normal" in="SourceGraphic" in2="effect1_dropShadow_5034_2188" result="shape"/>
</filter>
</defs>
</svg>
