<svg width="30" height="31" viewBox="0 0 30 31" fill="none" xmlns="http://www.w3.org/2000/svg">
<mask id="mask0_5386_2936" style="mask-type:alpha" maskUnits="userSpaceOnUse" x="2" y="2" width="26" height="26">
<path fill-rule="evenodd" clip-rule="evenodd" d="M2.50012 15.2075C2.50012 8.30752 8.10012 2.70752 15.0001 2.70752C21.9001 2.70752 27.5001 8.30752 27.5001 15.2075C27.5001 22.1075 21.9001 27.7075 15.0001 27.7075C8.10012 27.7075 2.50012 22.1075 2.50012 15.2075ZM12.5002 10.8318V19.5818C12.5002 20.0943 13.0877 20.3943 13.5002 20.0818L19.3377 15.7068C19.6752 15.4568 19.6752 14.9568 19.3377 14.7068L13.5002 10.3318C13.0877 10.0193 12.5002 10.3193 12.5002 10.8318Z" fill="black"/>
</mask>
<g mask="url(#mask0_5386_2936)">
<rect y="0.207031" width="30" height="30" fill="white"/>
</g>
</svg>
