<svg width="31" height="31" viewBox="0 0 31 31" fill="none" xmlns="http://www.w3.org/2000/svg">
<mask id="mask0_5034_2184" style="mask-type:alpha" maskUnits="userSpaceOnUse" x="4" y="2" width="23" height="26">
<path d="M22.9141 20.357C21.9641 20.357 21.1141 20.732 20.4641 21.3195L11.5516 16.132C11.6141 15.8445 11.6641 15.557 11.6641 15.257C11.6641 14.957 11.6141 14.6695 11.5516 14.382L20.3641 9.24446C21.0391 9.86946 21.9266 10.257 22.9141 10.257C24.9891 10.257 26.6641 8.58196 26.6641 6.50696C26.6641 4.43196 24.9891 2.75696 22.9141 2.75696C20.8391 2.75696 19.1641 4.43196 19.1641 6.50696C19.1641 6.80696 19.2141 7.09446 19.2766 7.38196L10.4641 12.5195C9.78906 11.8945 8.90156 11.507 7.91406 11.507C5.83906 11.507 4.16406 13.182 4.16406 15.257C4.16406 17.332 5.83906 19.007 7.91406 19.007C8.90156 19.007 9.78906 18.6195 10.4641 17.9945L19.3641 23.1945C19.3016 23.457 19.2641 23.732 19.2641 24.007C19.2641 26.0195 20.9016 27.657 22.9141 27.657C24.9266 27.657 26.5641 26.0195 26.5641 24.007C26.5641 21.9945 24.9266 20.357 22.9141 20.357Z" fill="black"/>
</mask>
<g mask="url(#mask0_5034_2184)">
<rect x="0.414062" y="0.207031" width="30" height="30" fill="white"/>
</g>
</svg>
