<svg width="31" height="31" viewBox="0 0 31 31" fill="none" xmlns="http://www.w3.org/2000/svg">
<mask id="mask0_5034_2186" style="mask-type:alpha" maskUnits="userSpaceOnUse" x="4" y="5" width="23" height="20">
<path fill-rule="evenodd" clip-rule="evenodd" d="M10.823 11.4989L16.363 5.95889C16.943 5.36889 17.883 5.36889 18.473 5.94889C18.833 6.30889 18.983 6.81889 18.883 7.31889L17.933 11.8989H23.583C25.733 11.8989 27.183 14.0989 26.343 16.0789L23.083 23.6889C22.763 24.4189 22.043 24.8989 21.243 24.8989H12.243C11.143 24.8989 10.243 23.9989 10.243 22.8989V12.9089C10.243 12.3789 10.453 11.8689 10.823 11.4989ZM8.24304 22.8989C8.24304 23.9989 7.34304 24.8989 6.24304 24.8989C5.14304 24.8989 4.24304 23.9989 4.24304 22.8989V14.8989C4.24304 13.7989 5.14304 12.8989 6.24304 12.8989C7.34304 12.8989 8.24304 13.7989 8.24304 14.8989V22.8989Z" fill="black"/>
</mask>
<g mask="url(#mask0_5034_2186)">
<rect x="3.41406" y="3.20703" width="24" height="24" fill="white"/>
</g>
</svg>
