<svg width="31" height="31" viewBox="0 0 31 31" fill="none" xmlns="http://www.w3.org/2000/svg">
<mask id="mask0_5034_2187" style="mask-type:alpha" maskUnits="userSpaceOnUse" x="4" y="5" width="23" height="20">
<path fill-rule="evenodd" clip-rule="evenodd" d="M19.9924 18.9151L14.4624 24.4551C13.8824 25.0451 12.9424 25.0451 12.3524 24.4651C11.9924 24.1051 11.8424 23.5951 11.9424 23.0951L12.8924 18.5151H7.24242C5.09242 18.5151 3.64242 16.3151 4.49242 14.3351L7.75242 6.72514C8.06242 5.99514 8.78242 5.51514 9.58242 5.51514H18.5724C19.6724 5.51514 20.5724 6.41514 20.5724 7.51514V17.5051C20.5724 18.0351 20.3624 18.5451 19.9924 18.9151ZM22.5824 7.51514C22.5824 6.41514 23.4824 5.51514 24.5824 5.51514C25.6824 5.51514 26.5824 6.41514 26.5824 7.51514V15.5151C26.5824 16.6151 25.6824 17.5151 24.5824 17.5151C23.4824 17.5151 22.5824 16.6151 22.5824 15.5151V7.51514Z" fill="black"/>
</mask>
<g mask="url(#mask0_5034_2187)">
<rect x="3.41406" y="3.20703" width="24" height="24" fill="white"/>
</g>
</svg>
